# This file uses centimeters as units for non-parametric coordinates.

v -108.030124 2.857937 -64.763773
v -113.019384 -11.493495 -48.044631
v -96.746387 4.164906 -47.353394
v -113.816369 6.995660 -47.609902
vt 0.000000 0.000000
vt 0.500000 0.000000
vt 1.000000 0.000000
vt 0.250000 0.375000
vt 0.750000 0.375000
vt 0.500000 0.750000
vt 0.500000 0.000000
vt 0.250000 0.375000
vt 0.250000 0.375000
vt 0.750000 0.375000
vt 0.750000 0.375000
vt 0.500000 0.000000
vn 0.651585 -0.660707 -0.372697
vn 0.651585 -0.660707 -0.372697
vn 0.651585 -0.660707 -0.372697
vn -0.019053 -0.024323 0.999523
vn -0.019053 -0.024323 0.999523
vn -0.019053 -0.024323 0.999523
vn 0.163575 0.970185 -0.178844
vn 0.163575 0.970185 -0.178844
vn 0.163575 0.970185 -0.178844
vn -0.949437 -0.033586 -0.312157
vn -0.949437 -0.033586 -0.312157
vn -0.949437 -0.033586 -0.312157
f 3/4/1 2/2/2 1/5/3
f 3/1/4 4/7/5 2/8/6
f 4/9/7 3/10/8 1/6/9
f 2/11/10 4/12/11 1/3/12
