# This file uses centimeters as units for non-parametric coordinates.

mtllib player.mtl
usemtl player

v 16.799023 -2.396700 -0.000000
v 15.976821 -2.396700 -5.191184
v 13.590695 -2.396700 -9.874219
v 9.874218 -2.396700 -13.590696
v 5.191183 -2.396700 -15.976823
v -0.000001 -2.396700 -16.799024
v -5.191185 -2.396700 -15.976823
v -9.874220 -2.396700 -13.590698
v -13.590699 -2.396700 -9.874220
v -15.976825 -2.396700 -5.191185
v -16.799026 -2.396700 -0.000000
v -15.976825 -2.396700 5.191185
v -13.590700 -2.396700 9.874221
v -9.874222 -2.396700 13.590701
v -5.191186 -2.396700 15.976828
v 0.000000 -2.396700 16.799030
v 5.191186 -2.396700 15.976828
v 9.874224 -2.396700 13.590703
v 13.590704 -2.396700 9.874224
v 15.976830 -2.396700 5.191187
v 16.799023 2.396700 0.000000
v 15.976821 2.396700 -5.191184
v 13.590695 2.396700 -9.874219
v 9.874218 2.396700 -13.590696
v 5.191183 2.396700 -15.976823
v -0.000001 2.396700 -16.799024
v -5.191185 2.396700 -15.976823
v -9.874220 2.396700 -13.590698
v -13.590699 2.396700 -9.874220
v -15.976825 2.396700 -5.191185
v -16.799026 2.396700 0.000000
v -15.976825 2.396700 5.191185
v -13.590700 2.396700 9.874221
v -9.874222 2.396700 13.590701
v -5.191186 2.396700 15.976828
v 0.000000 2.396700 16.799030
v 5.191186 2.396700 15.976828
v 9.874224 2.396700 13.590703
v 13.590704 2.396700 9.874224
v 15.976830 2.396700 5.191187
v 17.646143 1.258779 0.000003
v 16.782486 1.258779 -5.452958
v 14.276049 1.258779 -10.372146
v 10.372145 1.258779 -14.276050
v 5.452959 1.258779 -16.782484
v -0.000002 1.258779 -17.646147
v -5.452965 1.258779 -16.782484
v -10.372152 1.258779 -14.276050
v -14.276054 1.258779 -10.372147
v -16.782493 1.258779 -5.452960
v -17.646151 1.258779 0.000003
v -16.782493 1.258779 5.452965
v -14.276056 1.258779 10.372154
v -10.372154 1.258779 14.276058
v -5.452966 1.258779 16.782495
v -0.000002 1.258779 17.646160
v 5.452962 1.258779 16.782495
v 10.372155 1.258779 14.276061
v 14.276051 1.258779 10.372156
v 16.782489 1.258779 5.452968
v 17.646143 -1.258779 0.000003
v 16.782486 -1.258779 -5.452958
v 14.276049 -1.258779 -10.372146
v 10.372145 -1.258779 -14.276050
v 5.452959 -1.258779 -16.782484
v -0.000002 -1.258779 -17.646147
v -5.452965 -1.258779 -16.782484
v -10.372152 -1.258779 -14.276050
v -14.276054 -1.258779 -10.372147
v -16.782493 -1.258779 -5.452960
v -17.646151 -1.258779 0.000003
v -16.782493 -1.258779 5.452965
v -14.276056 -1.258779 10.372154
v -10.372154 -1.258779 14.276058
v -5.452966 -1.258779 16.782495
v -0.000002 -1.258779 17.646160
v 5.452962 -1.258779 16.782495
v 10.372155 -1.258779 14.276061
v 14.276051 -1.258779 10.372156
v 16.782489 -1.258779 5.452968
vt 0.016624 0.544766
vt 0.012137 0.737312
vt 0.016624 0.544766
vt 0.012137 0.737312
vt 0.016624 0.544766
vt 0.012137 0.737312
vt 0.016624 0.544766
vt 0.012137 0.737312
vt 0.016624 0.544766
vt 0.012137 0.737312
vt 0.016624 0.544766
vt 0.012137 0.737312
vt 0.016624 0.544766
vt 0.012137 0.737312
vt 0.016624 0.544766
vt 0.012137 0.737312
vt 0.016624 0.544766
vt 0.012137 0.737312
vt 0.016624 0.544766
vt 0.012137 0.737312
vt 0.262815 0.544766
vt 0.262815 0.705047
vt 0.012137 0.737312
vt 0.262815 0.705047
vt 0.012137 0.737312
vt 0.262815 0.705047
vt 0.012137 0.737312
vt 0.262815 0.705047
vt 0.012137 0.737312
vt 0.262815 0.705047
vt 0.012137 0.737312
vt 0.262815 0.705047
vt 0.012137 0.737312
vt 0.262815 0.705047
vt 0.012137 0.737312
vt 0.262815 0.705047
vt 0.012137 0.737312
vt 0.262815 0.705047
vt 0.012137 0.737312
vt 0.262815 0.705047
vt 0.509005 0.544766
vt 0.509005 0.705047
vt 0.124735 0.821135
vt 0.509005 0.705047
vt 0.124735 0.821135
vt 0.509005 0.705047
vt 0.124735 0.821135
vt 0.509005 0.705047
vt 0.124735 0.821135
vt 0.509005 0.705047
vt 0.124735 0.821135
vt 0.509005 0.705047
vt 0.124735 0.821135
vt 0.509005 0.705047
vt 0.124735 0.821135
vt 0.509005 0.705047
vt 0.124735 0.821135
vt 0.509005 0.705047
vt 0.124735 0.821135
vt 0.509005 0.705047
vt 0.755196 0.544766
vt 0.755196 0.705047
vt 0.373849 0.821135
vt 0.755196 0.705047
vt 0.373849 0.821135
vt 0.755196 0.705047
vt 0.373849 0.821135
vt 0.755196 0.705047
vt 0.373849 0.821135
vt 0.755196 0.705047
vt 0.373849 0.821135
vt 0.755196 0.705047
vt 0.373849 0.821135
vt 0.755196 0.705047
vt 0.373849 0.821135
vt 0.755196 0.705047
vt 0.373849 0.821135
vt 0.755196 0.705047
vt 0.373849 0.821135
vt 0.755196 0.705047
vt 1.001386 0.544766
vt 1.001386 0.705047
vt 1.001386 0.544766
vt 1.001386 0.705047
vt 1.001386 0.544766
vt 1.001386 0.705047
vt 1.001386 0.544766
vt 1.001386 0.705047
vt 1.001386 0.544766
vt 1.001386 0.705047
vt 1.001386 0.544766
vt 1.001386 0.705047
vt 1.001386 0.544766
vt 1.001386 0.705047
vt 1.001386 0.544766
vt 1.001386 0.705047
vt 1.001386 0.544766
vt 1.001386 0.705047
vt 1.001386 0.544766
vt 1.001386 0.705047
vt 0.124735 0.821135
vt 0.016624 0.705047
vt 0.755196 0.544766
vt 0.486447 0.737312
vt 0.124735 0.821135
vt 0.016624 0.705047
vt 0.755196 0.544766
vt 0.486447 0.737312
vt 0.124735 0.821135
vt 0.016624 0.705047
vt 0.755196 0.544766
vt 0.486447 0.737312
vt 0.124735 0.821135
vt 0.016624 0.705047
vt 0.755196 0.544766
vt 0.486447 0.737312
vt 0.124735 0.821135
vt 0.016624 0.705047
vt 0.755196 0.544766
vt 0.486447 0.737312
vt 0.124735 0.821135
vt 0.016624 0.705047
vt 0.755196 0.544766
vt 0.486447 0.737312
vt 0.124735 0.821135
vt 0.016624 0.705047
vt 0.755196 0.544766
vt 0.486447 0.737312
vt 0.124735 0.821135
vt 0.016624 0.705047
vt 0.755196 0.544766
vt 0.486447 0.737312
vt 0.755196 0.544766
vt 0.486447 0.737312
vt 0.124735 0.821135
vt 0.016624 0.705047
vt 0.373849 0.821135
vt 0.509005 0.544766
vt 0.373849 0.821135
vt 0.509005 0.544766
vt 0.373849 0.821135
vt 0.509005 0.544766
vt 0.373849 0.821135
vt 0.509005 0.544766
vt 0.373849 0.821135
vt 0.509005 0.544766
vt 0.373849 0.821135
vt 0.509005 0.544766
vt 0.373849 0.821135
vt 0.509005 0.544766
vt 0.373849 0.821135
vt 0.509005 0.544766
vt 0.509005 0.544766
vt 0.373849 0.821135
vt 0.486447 0.737312
vt 0.262815 0.544766
vt 0.486447 0.737312
vt 0.262815 0.544766
vt 0.486447 0.737312
vt 0.262815 0.544766
vt 0.486447 0.737312
vt 0.262815 0.544766
vt 0.486447 0.737312
vt 0.262815 0.544766
vt 0.486447 0.737312
vt 0.262815 0.544766
vt 0.486447 0.737312
vt 0.262815 0.544766
vt 0.486447 0.737312
vt 0.262815 0.544766
vt 0.262815 0.544766
vt 0.486447 0.737312
vt 0.124735 0.821135
vt 0.016624 0.705047
vt 0.373849 0.821135
vt 0.486447 0.737312
vn -0.987688 0.000000 0.156434
vn -0.987688 0.000000 0.156434
vn -0.987688 0.000000 0.156434
vn -0.987688 0.000000 0.156434
vn -0.707107 0.000000 0.707107
vn -0.707107 0.000000 0.707107
vn -0.707107 0.000000 0.707107
vn -0.707107 0.000000 0.707107
vn -0.156434 0.000000 0.987688
vn -0.156434 0.000000 0.987688
vn -0.156434 0.000000 0.987688
vn -0.156434 0.000000 0.987688
vn 0.453990 0.000000 0.891007
vn 0.453990 0.000000 0.891007
vn 0.453990 0.000000 0.891007
vn 0.453990 0.000000 0.891007
vn 0.891007 0.000000 0.453991
vn 0.891007 0.000000 0.453991
vn 0.891007 0.000000 0.453991
vn 0.891007 0.000000 0.453991
vn 0.987688 0.000000 -0.156434
vn 0.987688 0.000000 -0.156434
vn 0.987688 0.000000 -0.156434
vn 0.987688 0.000000 -0.156434
vn 0.707107 0.000000 -0.707107
vn 0.707107 0.000000 -0.707107
vn 0.707107 0.000000 -0.707107
vn 0.707107 0.000000 -0.707107
vn 0.156434 0.000000 -0.987688
vn 0.156434 0.000000 -0.987688
vn 0.156434 0.000000 -0.987688
vn 0.156434 0.000000 -0.987688
vn -0.453990 0.000000 -0.891007
vn -0.453990 0.000000 -0.891007
vn -0.453990 0.000000 -0.891007
vn -0.453990 0.000000 -0.891007
vn -0.891007 0.000000 -0.453990
vn -0.891007 0.000000 -0.453990
vn -0.891007 0.000000 -0.453990
vn -0.891007 0.000000 -0.453990
vn 0.795737 0.592384 -0.126032
vn 0.795737 0.592384 -0.126032
vn 0.795737 0.592384 -0.126032
vn 0.795737 0.592384 -0.126032
vn 0.569682 0.592390 -0.569681
vn 0.569682 0.592390 -0.569681
vn 0.569682 0.592390 -0.569682
vn 0.569682 0.592390 -0.569682
vn 0.126032 0.592384 -0.795737
vn 0.126032 0.592384 -0.795737
vn 0.126032 0.592384 -0.795737
vn 0.126032 0.592384 -0.795737
vn -0.365758 0.592388 -0.717842
vn -0.365758 0.592388 -0.717842
vn -0.365758 0.592388 -0.717842
vn -0.365758 0.592388 -0.717842
vn -0.717841 0.592389 -0.365758
vn -0.717841 0.592389 -0.365757
vn -0.717841 0.592389 -0.365758
vn -0.717841 0.592390 -0.365758
vn -0.795735 0.592386 0.126031
vn -0.795735 0.592386 0.126031
vn -0.795735 0.592386 0.126031
vn -0.795735 0.592386 0.126031
vn -0.569680 0.592393 0.569680
vn -0.569680 0.592393 0.569680
vn -0.569680 0.592393 0.569680
vn -0.569680 0.592393 0.569680
vn -0.126032 0.592387 0.795735
vn -0.126032 0.592387 0.795735
vn -0.126032 0.592387 0.795735
vn -0.126032 0.592387 0.795735
vn 0.365757 0.592390 0.717841
vn 0.365757 0.592390 0.717841
vn 0.365757 0.592390 0.717841
vn 0.365757 0.592390 0.717841
vn 0.717843 0.592388 0.365758
vn 0.717843 0.592388 0.365758
vn 0.717843 0.592388 0.365758
vn 0.717843 0.592388 0.365758
vn 0.987689 0.000000 -0.156433
vn 0.987689 0.000000 -0.156433
vn 0.987689 0.000000 -0.156433
vn 0.987689 0.000000 -0.156433
vn 0.707107 0.000000 -0.707107
vn 0.707107 0.000000 -0.707107
vn 0.707107 0.000000 -0.707107
vn 0.707107 0.000000 -0.707107
vn 0.156434 0.000000 -0.987688
vn 0.156434 0.000000 -0.987688
vn 0.156434 0.000000 -0.987688
vn 0.156434 0.000000 -0.987688
vn -0.453988 0.000000 -0.891008
vn -0.453988 0.000000 -0.891008
vn -0.453988 0.000000 -0.891008
vn -0.453988 0.000000 -0.891008
vn -0.891007 0.000000 -0.453989
vn -0.891007 0.000000 -0.453989
vn -0.891007 0.000000 -0.453989
vn -0.891007 0.000000 -0.453989
vn -0.987689 0.000000 0.156433
vn -0.987689 0.000000 0.156433
vn -0.987689 0.000000 0.156433
vn -0.987689 0.000000 0.156433
vn -0.707107 0.000000 0.707107
vn -0.707107 0.000000 0.707107
vn -0.707107 0.000000 0.707107
vn -0.707107 0.000000 0.707107
vn -0.156434 0.000000 0.987688
vn -0.156434 0.000000 0.987688
vn -0.156434 0.000000 0.987688
vn -0.156434 0.000000 0.987688
vn 0.453988 0.000000 0.891008
vn 0.453988 0.000000 0.891008
vn 0.453988 0.000000 0.891008
vn 0.453988 0.000000 0.891008
vn 0.891007 0.000000 0.453989
vn 0.891007 0.000000 0.453989
vn 0.891007 0.000000 0.453989
vn 0.891007 0.000000 0.453989
vn 0.795737 -0.592384 -0.126032
vn 0.795737 -0.592384 -0.126032
vn 0.795737 -0.592384 -0.126032
vn 0.795737 -0.592384 -0.126032
vn 0.569682 -0.592390 -0.569682
vn 0.569682 -0.592390 -0.569682
vn 0.569682 -0.592390 -0.569681
vn 0.569682 -0.592390 -0.569681
vn 0.126032 -0.592384 -0.795737
vn 0.126032 -0.592384 -0.795737
vn 0.126032 -0.592384 -0.795737
vn 0.126032 -0.592384 -0.795737
vn -0.365758 -0.592388 -0.717842
vn -0.365758 -0.592388 -0.717842
vn -0.365758 -0.592388 -0.717842
vn -0.365758 -0.592388 -0.717842
vn -0.717841 -0.592390 -0.365758
vn -0.717841 -0.592389 -0.365758
vn -0.717841 -0.592389 -0.365757
vn -0.717841 -0.592389 -0.365758
vn -0.795735 -0.592386 0.126031
vn -0.795735 -0.592386 0.126031
vn -0.795735 -0.592386 0.126031
vn -0.795735 -0.592386 0.126031
vn -0.569680 -0.592393 0.569680
vn -0.569680 -0.592393 0.569680
vn -0.569680 -0.592393 0.569680
vn -0.569680 -0.592393 0.569680
vn -0.126032 -0.592387 0.795735
vn -0.126032 -0.592387 0.795735
vn -0.126032 -0.592387 0.795735
vn -0.126032 -0.592387 0.795735
vn 0.365757 -0.592390 0.717841
vn 0.365757 -0.592390 0.717841
vn 0.365757 -0.592390 0.717841
vn 0.365757 -0.592390 0.717841
vn 0.717843 -0.592388 0.365758
vn 0.717843 -0.592388 0.365758
vn 0.717843 -0.592388 0.365758
vn 0.717843 -0.592388 0.365758
vn -0.587779 0.000000 -0.809021
vn -0.587779 0.000000 -0.809021
vn -0.587779 0.000000 -0.809021
vn -0.587779 0.000000 -0.809021
vn -0.951055 0.000000 -0.309021
vn -0.951055 0.000000 -0.309021
vn -0.951055 0.000000 -0.309021
vn -0.951055 0.000000 -0.309021
vn 0.809022 0.000000 0.587778
vn 0.809022 0.000000 0.587778
vn 0.809022 0.000000 0.587778
vn 0.809022 0.000000 0.587778
vn -0.000003 0.000000 -1.000000
vn -0.000003 0.000000 -1.000000
vn -0.000003 0.000000 -1.000000
vn -0.000003 0.000000 -1.000000
vn 0.309020 0.000000 0.951056
vn 0.309020 0.000000 0.951056
vn 0.309020 0.000000 0.951056
vn 0.309020 0.000000 0.951056
vn -0.309015 0.000000 0.951057
vn -0.309014 0.000000 0.951057
vn -0.309014 0.000000 0.951057
vn -0.309015 0.000000 0.951057
vn -0.809020 0.000000 0.587782
vn -0.809020 0.000000 0.587782
vn -0.809020 0.000000 0.587782
vn -0.809020 0.000000 0.587782
vn 0.587776 0.000000 -0.809024
vn 0.587776 0.000000 -0.809024
vn 0.587776 0.000000 -0.809024
vn 0.587776 0.000000 -0.809024
vn 0.951055 0.000000 -0.309022
vn 0.951055 0.000000 -0.309022
vn 0.951055 0.000000 -0.309022
vn 0.951055 0.000000 -0.309022
vn -1.000000 0.000000 0.000002
vn -1.000000 0.000000 0.000002
vn -1.000000 0.000000 0.000002
vn -1.000000 0.000000 0.000002
vn 0.587776 0.000000 0.809023
vn 0.587776 0.000000 0.809023
vn 0.587776 0.000000 0.809023
vn 0.587776 0.000000 0.809023
vn -0.309015 0.000000 -0.951057
vn -0.309015 0.000000 -0.951057
vn -0.309015 0.000000 -0.951057
vn -0.309015 0.000000 -0.951057
vn -0.587784 0.000000 0.809018
vn -0.587784 0.000000 0.809018
vn -0.587784 0.000000 0.809018
vn -0.587784 0.000000 0.809018
vn 0.809023 0.000000 -0.587777
vn 0.809023 0.000000 -0.587777
vn 0.809023 0.000000 -0.587777
vn 0.809023 0.000000 -0.587777
vn -0.951057 0.000000 0.309016
vn -0.951057 0.000000 0.309016
vn -0.951057 0.000000 0.309016
vn -0.951057 0.000000 0.309016
vn 1.000000 0.000000 0.000002
vn 1.000000 0.000000 0.000002
vn 1.000000 0.000000 0.000002
vn 1.000000 0.000000 0.000002
vn 0.951056 0.000000 0.309017
vn 0.951056 0.000000 0.309017
vn 0.951056 0.000000 0.309017
vn 0.951056 0.000000 0.309017
vn 0.309024 0.000000 -0.951054
vn 0.309024 0.000000 -0.951054
vn 0.309024 0.000000 -0.951054
vn 0.309024 0.000000 -0.951054
vn -0.000003 0.000000 1.000000
vn -0.000003 0.000000 1.000000
vn -0.000003 0.000000 1.000000
vn -0.000003 0.000000 1.000000
vn -0.809024 0.000000 -0.587776
vn -0.809024 0.000000 -0.587776
vn -0.809024 0.000000 -0.587776
vn -0.809024 0.000000 -0.587776
f 2/136/1 1/1/2 21/21/3 22/22/4
f 4/174/5 3/3/6 23/171/7 24/24/8
f 6/130/9 5/5/10 25/170/11 26/26/12
f 8/126/13 7/7/14 27/168/15 28/28/16
f 10/122/17 9/9/18 29/166/19 30/30/20
f 12/118/21 11/11/22 31/164/23 32/32/24
f 14/114/25 13/13/26 33/162/27 34/34/28
f 16/110/29 15/15/30 35/160/31 36/36/32
f 18/106/33 17/17/34 37/158/35 38/38/36
f 20/102/37 19/19/38 39/156/39 40/40/40
f 22/22/41 21/21/42 41/41/43 42/42/44
f 24/24/45 23/171/46 43/153/47 44/44/48
f 26/26/49 25/170/50 45/152/51 46/46/52
f 28/28/53 27/168/54 47/150/55 48/48/56
f 30/30/57 29/166/58 49/148/59 50/50/60
f 32/32/61 31/164/62 51/146/63 52/52/64
f 34/34/65 33/162/66 53/144/67 54/54/68
f 36/36/69 35/160/70 55/142/71 56/56/72
f 38/38/73 37/158/74 57/140/75 58/58/76
f 40/40/77 39/156/78 59/138/79 60/60/80
f 42/42/81 41/41/82 61/61/83 62/62/84
f 44/44/85 43/153/86 63/133/87 64/64/88
f 46/46/89 45/152/90 65/131/91 66/66/92
f 48/48/93 47/150/94 67/127/95 68/68/96
f 50/50/97 49/148/98 69/123/99 70/70/100
f 52/52/101 51/146/102 71/119/103 72/72/104
f 54/54/105 53/144/106 73/115/107 74/74/108
f 56/56/109 55/142/110 75/111/111 76/76/112
f 58/58/113 57/140/114 77/107/115 78/78/116
f 60/60/117 59/138/118 79/103/119 80/80/120
f 62/62/121 61/61/122 1/81/123 2/82/124
f 64/64/125 63/133/126 3/83/127 4/84/128
f 66/66/129 65/131/130 5/85/131 6/86/132
f 68/68/133 67/127/134 7/87/135 8/88/136
f 70/70/137 69/123/138 9/89/139 10/90/140
f 72/72/141 71/119/142 11/91/143 12/92/144
f 74/74/145 73/115/146 13/93/147 14/94/148
f 76/76/149 75/111/150 15/95/151 16/96/152
f 78/78/153 77/107/154 17/97/155 18/98/156
f 80/80/157 79/103/158 19/99/159 20/100/160
f 33/33/161 13/116/162 73/73/163 53/53/164
f 35/35/165 15/112/166 75/75/167 55/55/168
f 34/161/169 54/143/170 74/113/171 14/14/172
f 31/31/173 11/120/174 71/71/175 51/51/176
f 32/163/177 52/145/178 72/117/179 12/12/180
f 30/165/181 50/147/182 70/121/183 10/10/184
f 28/167/185 48/149/186 68/125/187 8/8/188
f 29/29/189 9/124/190 69/69/191 49/49/192
f 27/27/193 7/128/194 67/67/195 47/47/196
f 26/169/197 46/151/198 66/129/199 6/6/200
f 23/23/201 3/134/202 63/63/203 43/43/204
f 22/172/205 42/154/206 62/135/207 2/2/208
f 39/39/209 19/104/210 79/79/211 59/59/212
f 38/157/213 58/139/214 78/105/215 18/18/216
f 37/37/217 17/108/218 77/77/219 57/57/220
f 36/159/221 56/141/222 76/109/223 16/16/224
f 25/25/225 5/132/226 65/65/227 45/45/228
f 40/155/229 60/137/230 80/101/231 20/20/232
f 21/21/233 1/81/234 61/61/235 41/41/236
f 24/176/237 44/175/238 64/173/239 4/4/240
